#!OML:ASF X:\für Bonn\!DataBase\2005_08_10_Bjorn_Final\c3d\bjorn.ASF
:FULLY-SPECIFIED
:DEGREES
605
root -1.23551 1.5578 21.6007 -443.081 -169.006 11.6457
lowerback -7.55024 -0.529316 -11.6485
upperback 1.1063 0.280575 -6.32083
thorax 5.39763 -0.298776 -0.135161
lowerneck -16.4809 -7.48341 -2.54709
upperneck 6.85096 -10.8011 7.6629
head 5.29332 -5.04645 1.75379
rclavicle -1.59028e-014 4.67144e-015
rhumerus -227.112 -202.206 117.658
rradius 111.9
rwrist -7.85947
rhand -18.182 12.22
rfingers 7.12502
rthumb 8.09472 -17.6049
lclavicle -1.59028e-014 4.67144e-015
lhumerus -389.029 -52.3079 -299.047
lradius 84.2233
lwrist -17.3183
lhand -49.3178 -25.8689
lfingers 7.12502
lthumb -21.9342 2.90769
rfemur -195.357 -157.183 182.668
rtibia 28.979
rfoot 7.7273 -7.11527
rtoes 12.1261
lfemur -43.9861 -9.7084 -29.7361
ltibia 67.0457
lfoot 20.6495 6.66726
ltoes -10.8793
606
root -1.23761 1.55671 21.5924 -443.105 -169.022 11.6923
lowerback -7.53669 -0.550611 -11.6451
upperback 1.11583 0.252658 -6.32155
thorax 5.40266 -0.312007 -0.141192
lowerneck -16.4079 -7.39699 -2.4122
upperneck 6.77226 -10.6835 7.51899
head 5.23506 -4.9962 1.70607
rclavicle -1.20861e-013 7.00716e-014
rhumerus -227.132 -202.52 117.339
rradius 111.672
rwrist -7.8318
rhand -18.0774 12.2315
rfingers 7.12502
rthumb 8.19564 -17.5896
lclavicle -1.20861e-013 7.00716e-014
lhumerus -389.171 -52.4167 -298.867
lradius 83.8148
lwrist -17.3866
lhand -49.2224 -26.0035
lfingers 7.12502
lthumb -21.8426 2.78371
rfemur -195.434 -157.138 182.665
rtibia 29.2123
rfoot 7.62465 -7.09169
rtoes 12.0423
lfemur -43.3606 -9.78937 -29.6832
ltibia 65.6654
lfoot 20.255 6.56346
ltoes -11.0585
607
root -1.24023 1.55648 21.5844 -443.108 -169.044 11.7169
lowerback -7.56231 -0.569735 -11.6367
upperback 1.13787 0.235419 -6.31675
thorax 5.44264 -0.32158 -0.143807
lowerneck -16.416 -7.31918 -2.284
upperneck 6.72749 -10.5774 7.37194
head 5.20149 -4.94889 1.65369
rclavicle 4.45278e-014 -1.08735e-013
rhumerus -227.102 -202.826 117.037
rradius 111.444
rwrist -7.79817
rhand -17.9827 12.2588
rfingers 7.12502
rthumb 8.28702 -17.5587
lclavicle 4.45278e-014 -1.08735e-013
lhumerus -389.248 -52.518 -298.729
lradius 83.417
lwrist -17.4511
lhand -49.0921 -26.0638
lfingers 7.12502
lthumb -21.7175 2.73797
rfemur -195.525 -157.091 182.669
rtibia 29.4158
rfoot 7.56056 -7.04931
rtoes 12.1267
lfemur -42.7364 -9.86339 -29.6292
ltibia 64.281
lfoot 19.8963 6.45716
ltoes -11.4581
608
root -1.24224 1.55604 21.5767 -443.111 -169.082 11.7395
lowerback -7.5788 -0.580728 -11.6078
upperback 1.1453 0.223181 -6.31918
thorax 5.46117 -0.327048 -0.164055
lowerneck -16.3869 -7.23734 -2.16178
upperneck 6.6938 -10.4705 7.25269
head 5.16778 -4.90056 1.61166
rclavicle -1.59028e-015 -6.88789e-014
rhumerus -227.098 -203.134 116.705
rradius 111.196
rwrist -7.74211
rhand -17.9468 12.283
rfingers 7.12502
rthumb 8.32169 -17.5331
lclavicle -1.59028e-015 -6.88789e-014
lhumerus -389.357 -52.6426 -298.6
lradius 83.0318
lwrist -17.5388
lhand -49.0123 -26.1931
lfingers 7.12502
lthumb -21.6408 2.61756
rfemur -195.615 -157.042 182.698
rtibia 29.61
rfoot 7.55593 -6.97514
rtoes 12.2841
lfemur -42.0997 -9.92125 -29.5514
ltibia 62.8909
lfoot 19.5806 6.35451
ltoes -11.7561
609
root -1.2452 1.55584 21.5691 -443.123 -169.119 11.7762
lowerback -7.58012 -0.606542 -11.5905
upperback 1.15109 0.19187 -6.28994
thorax 5.47095 -0.340701 -0.146285
lowerneck -16.3744 -7.16739 -2.1038
upperneck 6.67209 -10.3629 7.12954
head 5.14361 -4.85174 1.57754
rclavicle -4.45278e-014 5.4467e-014
rhumerus -227.058 -203.469 116.459
rradius 110.937
rwrist -7.76782
rhand -17.8393 12.3611
rfingers 7.12502
rthumb 8.42546 -17.4508
lclavicle -4.45278e-014 5.4467e-014
lhumerus -389.491 -52.7054 -298.39
lradius 82.6218
lwrist -17.6202
lhand -48.9223 -26.3673
lfingers 7.12502
lthumb -21.5544 2.45326
rfemur -195.688 -156.883 182.719
rtibia 29.7865
rfoot 7.65013 -6.81538
rtoes 12.331
lfemur -41.4477 -10.0184 -29.4739
ltibia 61.4973
lfoot 19.2768 6.26892
ltoes -12.071
610
root -1.24744 1.55546 21.5619 -443.136 -169.138 11.8007
lowerback -7.59027 -0.636311 -11.6002
upperback 1.16849 0.159913 -6.27163
thorax 5.49842 -0.356925 -0.12616
lowerneck -16.3573 -7.0899 -2.03313
upperneck 6.61633 -10.2495 7.02158
head 5.1083 -4.80051 1.54736
rclavicle -6.36111e-015 -6.65929e-014
rhumerus -226.998 -203.825 116.193
rradius 110.696
rwrist -7.80249
rhand -17.7643 12.3787
rfingers 7.12502
rthumb 8.49776 -17.4304
lclavicle -6.36111e-015 -6.65929e-014
lhumerus -389.599 -52.7512 -298.252
lradius 82.2317
lwrist -17.7603
lhand -48.8233 -26.4403
lfingers 7.12502
lthumb -21.4593 2.39108
rfemur -195.756 -156.841 182.723
rtibia 29.954
rfoot 7.7007 -6.73034
rtoes 12.4892
lfemur -40.7769 -10.1092 -29.4071
ltibia 60.1003
lfoot 19.0148 6.26366
ltoes -12.3094
611
root -1.24957 1.55506 21.556 -443.138 -169.156 11.8219
lowerback -7.58726 -0.648286 -11.5939
upperback 1.15934 0.14304 -6.26472
thorax 5.48833 -0.363755 -0.123935
lowerneck -16.2899 -7.02349 -1.96066
upperneck 6.56093 -10.152 6.91135
head 5.06575 -4.75838 1.5161
rclavicle 6.67916e-014 -3.12092e-014
rhumerus -227.009 -204.14 115.877
rradius 110.453
rwrist -7.85958
rhand -17.7032 12.4237
rfingers 7.12502
rthumb 8.55678 -17.3829
lclavicle 6.67916e-014 -3.12092e-014
lhumerus -389.723 -52.8336 -298.091
lradius 81.8528
lwrist -17.8652
lhand -48.683 -26.5741
lfingers 7.12502
lthumb -21.3245 2.27258
rfemur -195.84 -156.778 182.734
rtibia 30.1128
rfoot 7.80144 -6.61205
rtoes 12.4941
lfemur -40.1143 -10.1919 -29.3463
ltibia 58.7116
lfoot 18.8156 6.15572
ltoes -12.7152
